<svg width="129" height="39" viewBox="0 0 129 39" fill="none" xmlns="http://www.w3.org/2000/svg">
<path d="M16.604 20.32C18.164 23.6133 20.14 26.4907 22.532 28.952C24.924 31.4133 27.2987 33.008 29.656 33.736C29.656 35.192 29.2747 36.3187 28.512 37.116C27.7493 37.9133 26.6573 38.312 25.236 38.312C23.3987 38.312 21.3013 37.1333 18.944 34.776C16.5867 32.384 14.524 29.576 12.756 26.352C11.0227 23.0933 10 20.2333 9.688 17.772C12.184 17.772 14.2293 17.1133 15.824 15.796C17.4533 14.444 18.268 12.5373 18.268 10.076C18.268 6.956 16.3267 5.396 12.444 5.396C11.196 5.396 9.67067 5.604 7.868 6.02C7.62533 10.7 7.504 14.4787 7.504 17.356C7.504 26.5773 7.868 33.2507 8.596 37.376C7.48667 37.792 6.308 38 5.06 38C3.812 38 2.72 37.6013 1.784 36.804C0.882667 36.0067 0.432 34.9493 0.432 33.632C0.432 32.3147 0.605333 30.0267 0.952 26.768C1.29867 23.4747 1.472 20.84 1.472 18.864C1.472 12.7973 1.03867 7.40666 0.172 2.692C4.852 1.40933 9.30667 0.767999 13.536 0.767999C21.2667 0.767999 25.132 3.524 25.132 9.036C25.132 11.4627 24.3 13.7507 22.636 15.9C21.0067 18.0147 18.996 19.488 16.604 20.32Z" fill="#FF9900"/>
<path d="M30.5202 21.8C31.2642 20.456 32.3202 19.784 33.6882 19.784C34.5762 19.784 35.2962 20.264 35.8482 21.224C36.4002 22.16 36.7842 23.324 37.0002 24.716C37.2402 26.084 37.4322 27.476 37.5762 28.892C37.9362 32.42 38.3802 34.352 38.9082 34.688C39.8442 34.448 40.6722 33.02 41.3922 30.404C42.1122 27.764 42.4722 25.784 42.4722 24.464C42.4722 23.12 42.4002 22.052 42.2562 21.26C43.0962 21.092 43.8162 21.008 44.4162 21.008C46.4802 21.008 47.5122 21.992 47.5122 23.96C47.5122 27.032 47.6682 29.54 47.9802 31.484C48.3162 33.404 48.7122 34.544 49.1682 34.904C49.8402 34.856 50.4162 34.328 50.8962 33.32C51.3762 32.312 51.7242 31.088 51.9402 29.648C52.3482 26.936 52.5522 24.86 52.5522 23.42C52.5522 21.956 52.4802 20.828 52.3362 20.036C53.1762 19.868 53.8962 19.784 54.4962 19.784C56.5602 19.784 57.5922 20.768 57.5922 22.736C57.5922 23.984 57.3402 25.496 56.8362 27.272C56.3322 29.024 55.6722 30.74 54.8562 32.42C54.0402 34.076 53.0442 35.492 51.8682 36.668C50.7162 37.844 49.5642 38.432 48.4122 38.432C47.0922 38.432 46.0962 37.448 45.4242 35.48C44.8962 33.992 44.4642 32.06 44.1282 29.684C43.9122 30.476 43.7562 31.052 43.6602 31.412C43.5642 31.772 43.3962 32.312 43.1562 33.032C42.9162 33.752 42.7002 34.304 42.5082 34.688C42.3162 35.072 42.0522 35.528 41.7162 36.056C41.4042 36.584 41.0802 36.968 40.7442 37.208C39.9042 37.88 38.9682 38.216 37.9362 38.216C36.9282 38.216 36.0882 37.76 35.4162 36.848C34.7682 35.936 34.3122 34.772 34.0482 33.356C33.8082 31.94 33.5922 30.488 33.4002 29C32.9442 25.208 31.9842 22.808 30.5202 21.8ZM66.3928 38.432C63.7528 38.432 61.8088 37.664 60.5608 36.128C59.3128 34.568 58.6888 32.408 58.6888 29.648C58.6888 26.864 59.5168 24.452 61.1728 22.412C62.8288 20.372 64.9528 19.352 67.5448 19.352C72.8728 19.352 75.5368 22.352 75.5368 28.352C75.5368 31.16 74.6728 33.548 72.9448 35.516C71.2168 37.46 69.0328 38.432 66.3928 38.432ZM63.8008 23.312C63.3688 24.704 63.1528 26.096 63.1528 27.488C63.1528 28.88 63.2008 29.96 63.2968 30.728C63.3928 31.496 63.5728 32.264 63.8368 33.032C64.3888 34.592 65.4688 35.372 67.0768 35.372C68.7088 35.372 69.7768 34.94 70.2808 34.076C70.8088 33.212 71.0728 31.88 71.0728 30.08C71.0728 24.968 69.8608 22.412 67.4368 22.412C66.0448 22.412 64.8328 22.712 63.8008 23.312ZM83.6601 37.568C82.9161 37.856 82.1241 38 81.2841 38C80.4441 38 79.7601 37.808 79.2321 37.424C78.7281 37.016 78.4761 36.464 78.4761 35.768C78.4761 35.048 78.5841 33.752 78.8001 31.88C79.0161 30.008 79.1241 28.196 79.1241 26.444C79.1241 24.668 78.8481 22.592 78.2961 20.216C79.0641 19.928 79.8201 19.784 80.5641 19.784C81.3081 19.784 81.9441 20.036 82.4721 20.54C83.0241 21.044 83.3001 21.716 83.3001 22.556C83.3001 22.988 83.2281 23.636 83.0841 24.5C82.9401 25.34 82.8561 25.976 82.8321 26.408C83.7681 24.272 84.8721 22.604 86.1441 21.404C87.4401 20.18 88.7241 19.568 89.9961 19.568C90.8841 19.568 91.5921 19.88 92.1201 20.504C92.6481 21.128 92.9121 21.92 92.9121 22.88C92.9121 23.816 92.6721 24.584 92.1921 25.184C91.7121 25.76 91.1121 26.048 90.3921 26.048C89.6961 26.048 89.1321 25.976 88.7001 25.832C88.7721 25.544 88.8081 25.28 88.8081 25.04C88.8081 24.056 88.4601 23.564 87.7641 23.564C86.7081 23.564 85.7121 24.632 84.7761 26.768C83.8641 28.88 83.2521 30.86 82.9401 32.708C83.0601 34.508 83.3001 36.128 83.6601 37.568ZM99.2852 26.66C100.125 24.884 101.373 23.264 103.029 21.8C104.709 20.312 106.401 19.568 108.105 19.568C110.505 19.568 111.705 20.84 111.705 23.384C111.705 24.68 111.105 26.072 109.905 27.56C108.729 29.024 107.409 30.188 105.945 31.052C106.617 32.228 107.445 33.128 108.429 33.752C109.437 34.352 110.757 34.832 112.389 35.192C112.389 36.128 112.161 36.872 111.705 37.424C111.273 37.952 110.649 38.216 109.833 38.216C108.201 38.216 106.605 37.436 105.045 35.876C103.485 34.292 102.309 32.528 101.517 30.584C103.053 29.816 104.373 28.904 105.477 27.848C106.605 26.792 107.169 25.736 107.169 24.68C107.169 23.624 106.845 23.096 106.197 23.096C104.949 23.096 103.557 24.236 102.021 26.516C100.509 28.796 99.6332 30.692 99.3932 32.204C99.4412 32.9 99.6812 34.688 100.113 37.568C99.3692 37.856 98.5532 38 97.6652 38C95.8172 38 94.8932 37.1 94.8932 35.3C94.8932 34.436 95.0252 32.744 95.2892 30.224C95.5532 27.68 95.6852 25.64 95.6852 24.104C95.6852 18.992 95.3972 14.768 94.8212 11.432C95.5892 11.144 96.3812 11 97.1972 11C98.0132 11 98.6852 11.276 99.2132 11.828C99.7652 12.356 100.041 13.088 100.041 14.024C100.041 14.96 99.9092 16.892 99.6452 19.82C99.4052 22.748 99.2852 25.028 99.2852 26.66ZM117.818 31.448C117.746 31.784 117.71 32.06 117.71 32.276C117.71 33.26 117.998 34.016 118.574 34.544C119.174 35.072 119.966 35.336 120.95 35.336C121.958 35.336 122.786 35.156 123.434 34.796C124.106 34.412 124.442 33.848 124.442 33.104C124.442 32.36 124.082 31.772 123.362 31.34C122.666 30.884 121.814 30.524 120.806 30.26C119.822 29.996 118.826 29.708 117.818 29.396C116.81 29.06 115.946 28.544 115.226 27.848C114.53 27.152 114.182 26.276 114.182 25.22C114.182 23.564 115.058 22.172 116.81 21.044C118.562 19.916 120.398 19.352 122.318 19.352C124.43 19.352 126.038 19.784 127.142 20.648C127.79 21.152 128.114 21.824 128.114 22.664C128.114 23.48 127.79 24.152 127.142 24.68C126.518 25.184 125.75 25.436 124.838 25.436C124.646 25.436 124.406 25.412 124.118 25.364C124.19 25.052 124.226 24.776 124.226 24.536C124.226 23.84 123.962 23.312 123.434 22.952C122.906 22.592 122.186 22.412 121.274 22.412C120.386 22.412 119.57 22.592 118.826 22.952C118.538 23.336 118.394 23.828 118.394 24.428C118.394 25.028 118.742 25.52 119.438 25.904C120.134 26.264 120.974 26.588 121.958 26.876C122.966 27.14 123.974 27.452 124.982 27.812C125.99 28.148 126.842 28.688 127.538 29.432C128.234 30.152 128.582 31.064 128.582 32.168C128.582 33.968 127.682 35.468 125.882 36.668C124.106 37.844 122.27 38.432 120.374 38.432C118.478 38.432 116.906 38.096 115.658 37.424C114.434 36.728 113.822 35.684 113.822 34.292C113.822 33.428 114.134 32.732 114.758 32.204C115.406 31.652 116.186 31.376 117.098 31.376C117.29 31.376 117.53 31.4 117.818 31.448Z" fill="white"/>
</svg>
